<mxfile host="65bd71144e">
    <diagram id="fGRCmJnZjl__OZuwzNtt" name="Página-1">
        <mxGraphModel dx="1309" dy="1472" grid="1" gridSize="10" guides="1" tooltips="1" connect="1" arrows="1" fold="1" page="1" pageScale="1" pageWidth="827" pageHeight="1169" math="0" shadow="0">
            <root>
                <mxCell id="0"/>
                <mxCell id="1" parent="0"/>
                <mxCell id="3" style="edgeStyle=none;html=1;" parent="1" source="2" target="4" edge="1">
                    <mxGeometry relative="1" as="geometry">
                        <mxPoint x="260" y="90" as="targetPoint"/>
                    </mxGeometry>
                </mxCell>
                <mxCell id="2" value="INICIO" style="ellipse;whiteSpace=wrap;html=1;fillColor=#f8cecc;strokeColor=#b85450;" parent="1" vertex="1">
                    <mxGeometry x="200" y="-80" width="120" height="60" as="geometry"/>
                </mxCell>
                <mxCell id="43" style="edgeStyle=none;html=1;fontSize=13;" parent="1" source="4" target="44" edge="1">
                    <mxGeometry relative="1" as="geometry">
                        <mxPoint x="260" y="140" as="targetPoint"/>
                    </mxGeometry>
                </mxCell>
                <mxCell id="4" value="a.b.c" style="shape=parallelogram;perimeter=parallelogramPerimeter;whiteSpace=wrap;html=1;fixedSize=1;fillColor=#dae8fc;strokeColor=#6c8ebf;" parent="1" vertex="1">
                    <mxGeometry x="200" y="10" width="120" height="50" as="geometry"/>
                </mxCell>
                <mxCell id="7" style="edgeStyle=none;html=1;" parent="1" source="6" edge="1">
                    <mxGeometry relative="1" as="geometry">
                        <mxPoint x="400" y="280" as="targetPoint"/>
                        <Array as="points">
                            <mxPoint x="400" y="220"/>
                            <mxPoint x="400" y="280"/>
                        </Array>
                    </mxGeometry>
                </mxCell>
                <mxCell id="6" value="d==0" style="rhombus;whiteSpace=wrap;html=1;fillColor=#d5e8d4;strokeColor=#82b366;" parent="1" vertex="1">
                    <mxGeometry x="210" y="180" width="100" height="80" as="geometry"/>
                </mxCell>
                <mxCell id="10" value="d&amp;gt;0" style="rhombus;whiteSpace=wrap;html=1;fillColor=#6a00ff;fontColor=#ffffff;strokeColor=#3700CC;" parent="1" vertex="1">
                    <mxGeometry x="80" y="280" width="80" height="80" as="geometry"/>
                </mxCell>
                <mxCell id="11" value="" style="endArrow=none;html=1;exitX=1;exitY=0.5;exitDx=0;exitDy=0;" parent="1" source="10" edge="1">
                    <mxGeometry width="50" height="50" relative="1" as="geometry">
                        <mxPoint x="230" y="360" as="sourcePoint"/>
                        <mxPoint x="240" y="390" as="targetPoint"/>
                        <Array as="points">
                            <mxPoint x="240" y="320"/>
                            <mxPoint x="240" y="390"/>
                        </Array>
                    </mxGeometry>
                </mxCell>
                <mxCell id="14" value="&lt;div style=&quot;text-align: start;&quot;&gt;&lt;/div&gt;&lt;span style=&quot;color: rgb(32, 33, 36); font-family: arial, sans-serif; font-size: 13px; text-align: start;&quot;&gt;x1=-b+&lt;/span&gt;&lt;span style=&quot;color: rgb(32, 33, 36); font-family: arial, sans-serif; text-align: start;&quot;&gt;&lt;span style=&quot;font-size: 13px;&quot;&gt;√d/2a&lt;/span&gt;&lt;font style=&quot;&quot; size=&quot;1&quot;&gt;&lt;br&gt;&lt;/font&gt;&lt;/span&gt;&lt;span style=&quot;color: rgb(32, 33, 36); font-family: arial, sans-serif; text-align: start;&quot;&gt;&lt;font style=&quot;font-size: 12px;&quot;&gt;x2=-b&lt;/font&gt;&lt;font size=&quot;1&quot; style=&quot;&quot;&gt;-&lt;/font&gt;&lt;/span&gt;&lt;span style=&quot;color: rgb(32, 33, 36); font-family: arial, sans-serif; font-size: 13px; text-align: start;&quot;&gt;√&lt;/span&gt;&lt;span style=&quot;color: rgb(32, 33, 36); font-family: arial, sans-serif; text-align: start;&quot;&gt;&lt;font style=&quot;font-size: 13px;&quot;&gt;d/&lt;/font&gt;&lt;font size=&quot;1&quot; style=&quot;&quot;&gt;2a&lt;/font&gt;&lt;/span&gt;&lt;span style=&quot;color: rgb(32, 33, 36); font-family: arial, sans-serif; text-align: start; background-color: rgb(255, 255, 255);&quot;&gt;&lt;br&gt;&lt;/span&gt;" style="rounded=0;whiteSpace=wrap;html=1;fillColor=#0050ef;fontColor=#ffffff;strokeColor=#001DBC;" parent="1" vertex="1">
                    <mxGeometry x="180" y="390" width="120" height="60" as="geometry"/>
                </mxCell>
                <mxCell id="24" value="" style="endArrow=none;html=1;" parent="1" edge="1">
                    <mxGeometry width="50" height="50" relative="1" as="geometry">
                        <mxPoint x="120" y="680" as="sourcePoint"/>
                        <mxPoint x="120" y="600" as="targetPoint"/>
                    </mxGeometry>
                </mxCell>
                <mxCell id="25" value="" style="endArrow=none;html=1;" parent="1" edge="1">
                    <mxGeometry width="50" height="50" relative="1" as="geometry">
                        <mxPoint x="120" y="680" as="sourcePoint"/>
                        <mxPoint x="400" y="680" as="targetPoint"/>
                    </mxGeometry>
                </mxCell>
                <mxCell id="26" value="" style="endArrow=classic;html=1;" parent="1" edge="1">
                    <mxGeometry width="50" height="50" relative="1" as="geometry">
                        <mxPoint x="260" y="680" as="sourcePoint"/>
                        <mxPoint x="260" y="730" as="targetPoint"/>
                    </mxGeometry>
                </mxCell>
                <mxCell id="27" value="FIN" style="ellipse;whiteSpace=wrap;html=1;fillColor=#f8cecc;strokeColor=#b85450;" parent="1" vertex="1">
                    <mxGeometry x="200" y="730" width="120" height="60" as="geometry"/>
                </mxCell>
                <mxCell id="30" value="f" style="text;html=1;strokeColor=none;fillColor=none;align=center;verticalAlign=middle;whiteSpace=wrap;rounded=0;" parent="1" vertex="1">
                    <mxGeometry x="130" y="190" width="60" height="30" as="geometry"/>
                </mxCell>
                <mxCell id="31" value="" style="endArrow=none;html=1;entryX=0;entryY=0.5;entryDx=0;entryDy=0;exitX=0.5;exitY=0;exitDx=0;exitDy=0;" parent="1" source="10" target="6" edge="1">
                    <mxGeometry width="50" height="50" relative="1" as="geometry">
                        <mxPoint x="130" y="220" as="sourcePoint"/>
                        <mxPoint x="290" y="230" as="targetPoint"/>
                        <Array as="points">
                            <mxPoint x="120" y="280"/>
                            <mxPoint x="120" y="220"/>
                        </Array>
                    </mxGeometry>
                </mxCell>
                <mxCell id="32" value="v" style="text;html=1;strokeColor=none;fillColor=none;align=center;verticalAlign=middle;whiteSpace=wrap;rounded=0;" parent="1" vertex="1">
                    <mxGeometry x="320" y="185" width="60" height="40" as="geometry"/>
                </mxCell>
                <mxCell id="37" value="" style="endArrow=none;html=1;entryX=0;entryY=0.5;entryDx=0;entryDy=0;" parent="1" target="10" edge="1">
                    <mxGeometry width="50" height="50" relative="1" as="geometry">
                        <mxPoint y="390" as="sourcePoint"/>
                        <mxPoint x="190" y="400" as="targetPoint"/>
                        <Array as="points">
                            <mxPoint y="390"/>
                            <mxPoint y="320"/>
                        </Array>
                    </mxGeometry>
                </mxCell>
                <mxCell id="38" value="f" style="text;html=1;strokeColor=none;fillColor=none;align=center;verticalAlign=middle;whiteSpace=wrap;rounded=0;" parent="1" vertex="1">
                    <mxGeometry x="10" y="290" width="60" height="30" as="geometry"/>
                </mxCell>
                <mxCell id="41" value="v" style="text;html=1;strokeColor=none;fillColor=none;align=center;verticalAlign=middle;whiteSpace=wrap;rounded=0;" parent="1" vertex="1">
                    <mxGeometry x="160" y="290" width="60" height="30" as="geometry"/>
                </mxCell>
                <mxCell id="45" style="edgeStyle=none;html=1;entryX=0.5;entryY=0;entryDx=0;entryDy=0;fontSize=13;" parent="1" source="44" target="6" edge="1">
                    <mxGeometry relative="1" as="geometry"/>
                </mxCell>
                <mxCell id="44" value="d = b2 - 4ac" style="rounded=0;whiteSpace=wrap;html=1;fontSize=13;fillColor=#e1d5e7;strokeColor=#9673a6;" parent="1" vertex="1">
                    <mxGeometry x="200" y="90" width="120" height="60" as="geometry"/>
                </mxCell>
                <mxCell id="46" value="x1=b/2a&lt;br&gt;x2=x1" style="rounded=0;whiteSpace=wrap;html=1;fontSize=13;fillColor=#d80073;fontColor=#ffffff;strokeColor=#A50040;" parent="1" vertex="1">
                    <mxGeometry x="340" y="280" width="120" height="60" as="geometry"/>
                </mxCell>
                <mxCell id="47" value="" style="endArrow=none;html=1;fontSize=13;entryX=0.5;entryY=1;entryDx=0;entryDy=0;" parent="1" target="46" edge="1">
                    <mxGeometry width="50" height="50" relative="1" as="geometry">
                        <mxPoint x="400" y="400" as="sourcePoint"/>
                        <mxPoint x="250" y="390" as="targetPoint"/>
                    </mxGeometry>
                </mxCell>
                <mxCell id="48" value="x1 x2" style="shape=document;whiteSpace=wrap;html=1;boundedLbl=1;fontSize=13;fillColor=#e3c800;fontColor=#000000;strokeColor=#B09500;" parent="1" vertex="1">
                    <mxGeometry x="360" y="400" width="120" height="50" as="geometry"/>
                </mxCell>
                <mxCell id="49" value="" style="endArrow=none;html=1;fontSize=13;entryX=0.499;entryY=0.857;entryDx=0;entryDy=0;entryPerimeter=0;" parent="1" target="48" edge="1">
                    <mxGeometry width="50" height="50" relative="1" as="geometry">
                        <mxPoint x="370" y="680" as="sourcePoint"/>
                        <mxPoint x="250" y="480" as="targetPoint"/>
                        <Array as="points">
                            <mxPoint x="400" y="680"/>
                            <mxPoint x="420" y="680"/>
                        </Array>
                    </mxGeometry>
                </mxCell>
                <mxCell id="51" value="x1,x2" style="shape=document;whiteSpace=wrap;html=1;boundedLbl=1;fontSize=13;fillColor=#647687;fontColor=#ffffff;strokeColor=#314354;" parent="1" vertex="1">
                    <mxGeometry x="50" y="500" width="120" height="60" as="geometry"/>
                </mxCell>
                <mxCell id="58" value="las rices son imaginarias&amp;nbsp;" style="shape=document;whiteSpace=wrap;html=1;boundedLbl=1;fontSize=13;fillColor=#1ba1e2;fontColor=#ffffff;strokeColor=#006EAF;" parent="1" vertex="1">
                    <mxGeometry x="-60" y="395" width="120" height="60" as="geometry"/>
                </mxCell>
                <mxCell id="59" value="" style="endArrow=none;html=1;fontSize=13;entryX=0.5;entryY=0.917;entryDx=0;entryDy=0;entryPerimeter=0;exitX=0;exitY=0.5;exitDx=0;exitDy=0;" parent="1" source="51" target="58" edge="1">
                    <mxGeometry width="50" height="50" relative="1" as="geometry">
                        <mxPoint x="20" y="530" as="sourcePoint"/>
                        <mxPoint x="200" y="480" as="targetPoint"/>
                        <Array as="points">
                            <mxPoint y="530"/>
                        </Array>
                    </mxGeometry>
                </mxCell>
                <mxCell id="60" value="" style="endArrow=none;html=1;fontSize=13;entryX=0.561;entryY=1.047;entryDx=0;entryDy=0;entryPerimeter=0;" parent="1" target="14" edge="1">
                    <mxGeometry width="50" height="50" relative="1" as="geometry">
                        <mxPoint x="170" y="530" as="sourcePoint"/>
                        <mxPoint x="200" y="480" as="targetPoint"/>
                        <Array as="points">
                            <mxPoint x="247" y="530"/>
                        </Array>
                    </mxGeometry>
                </mxCell>
                <mxCell id="61" value="" style="endArrow=none;html=1;fontSize=13;entryX=0.589;entryY=0.742;entryDx=0;entryDy=0;entryPerimeter=0;" parent="1" target="51" edge="1">
                    <mxGeometry width="50" height="50" relative="1" as="geometry">
                        <mxPoint x="121" y="600" as="sourcePoint"/>
                        <mxPoint x="200" y="610" as="targetPoint"/>
                    </mxGeometry>
                </mxCell>
            </root>
        </mxGraphModel>
    </diagram>
</mxfile>